<?xml version="1.0" encoding="UTF-8"?>
<svg xmlns="http://www.w3.org/2000/svg" width="1200" height="360" viewBox="0 0 1200 360" role="img" aria-label="Agent Skills: Reusable skills for repository documentation">
  <title>Agent Skills: Reusable skills for repository documentation</title>
  <defs>
    <linearGradient id="background-wash" x1="0" y1="0" x2="1" y2="1">
      <stop offset="0%" stop-color="#d9a86c" stop-opacity="0"/>
      <stop offset="100%" stop-color="#d9a86c" stop-opacity="0.12"/>
    </linearGradient>
    <radialGradient id="subtle-glow">
      <stop offset="0%" stop-color="#78b6a5" stop-opacity="0.16"/>
      <stop offset="100%" stop-color="#78b6a5" stop-opacity="0"/>
    </radialGradient>
    <radialGradient id="title-scrim" cx="50%" cy="50%" r="66%">
      <stop offset="0%" stop-color="#17202b" stop-opacity="0.62"/>
      <stop offset="58%" stop-color="#17202b" stop-opacity="0.32"/>
      <stop offset="100%" stop-color="#17202b" stop-opacity="0"/>
    </radialGradient>
    <g id="stack-icon-0" transform="translate(0 0) scale(2.41667)"><path d="M14.25.18l.9.2.73.26.59.3.45.32.34.34.25.34.16.33.1.3.04.26.02.2-.01.13V8.5l-.05.63-.13.55-.21.46-.26.38-.3.31-.33.25-.35.19-.35.14-.33.1-.3.07-.26.04-.21.02H8.77l-.69.05-.59.14-.5.22-.41.27-.33.32-.27.35-.2.36-.15.37-.1.35-.07.32-.04.27-.02.21v3.06H3.17l-.21-.03-.28-.07-.32-.12-.35-.18-.36-.26-.36-.36-.35-.46-.32-.59-.28-.73-.21-.88-.14-1.05-.05-1.23.06-1.22.16-1.04.24-.87.32-.71.36-.57.4-.44.42-.33.42-.24.4-.16.36-.1.32-.05.24-.01h.16l.06.01h8.16v-.83H6.18l-.01-2.75-.02-.37.05-.34.11-.31.17-.28.25-.26.31-.23.38-.2.44-.18.51-.15.58-.12.64-.1.71-.06.77-.04.84-.02 1.27.05zm-6.3 1.98l-.23.33-.08.41.08.41.23.34.33.22.41.09.41-.09.33-.22.23-.34.08-.41-.08-.41-.23-.33-.33-.22-.41-.09-.41.09zm13.09 3.95l.28.06.32.12.35.18.36.27.36.35.35.47.32.59.28.73.21.88.14 1.04.05 1.23-.06 1.23-.16 1.04-.24.86-.32.71-.36.57-.4.45-.42.33-.42.24-.4.16-.36.09-.32.05-.24.02-.16-.01h-8.22v.82h5.84l.01 2.76.02.36-.05.34-.11.31-.17.29-.25.25-.31.24-.38.2-.44.17-.51.15-.58.13-.64.09-.71.07-.77.04-.84.01-1.27-.04-1.07-.14-.9-.2-.73-.25-.59-.3-.45-.33-.34-.34-.25-.34-.16-.33-.1-.3-.04-.25-.02-.2.01-.13v-5.34l.05-.64.13-.54.21-.46.26-.38.3-.32.33-.24.35-.2.35-.14.33-.1.3-.06.26-.04.21-.02.13-.01h5.84l.69-.05.59-.14.5-.21.41-.28.33-.32.27-.35.2-.36.15-.36.1-.35.07-.32.04-.28.02-.21V6.07h2.09l.14.01zm-6.47 14.25l-.23.33-.08.41.08.41.23.33.33.23.41.08.41-.08.33-.23.23-.33.08-.41-.08-.41-.23-.33-.33-.23-.41-.08-.41.08z" fill-rule="nonzero" clip-rule="nonzero"/></g>
  </defs>
  <rect width="100%" height="100%" fill="#17202b"/>
  <rect width="100%" height="100%" fill="url(#background-wash)"/>
  <ellipse cx="864" cy="72" rx="408" ry="306" fill="url(#subtle-glow)"/>
  <g transform="rotate(-12 600 180)" opacity="0.16">
    <use href="#stack-icon-0" x="-168" y="7" width="58" height="58" fill="#f4f1e8"/><use href="#stack-icon-0" x="-72" y="7" width="58" height="58" fill="#78b6a5"/><use href="#stack-icon-0" x="24" y="7" width="58" height="58" fill="#d9a86c"/><use href="#stack-icon-0" x="120" y="7" width="58" height="58" fill="#f4f1e8"/><use href="#stack-icon-0" x="216" y="7" width="58" height="58" fill="#78b6a5"/><use href="#stack-icon-0" x="312" y="7" width="58" height="58" fill="#d9a86c"/><use href="#stack-icon-0" x="408" y="7" width="58" height="58" fill="#f4f1e8"/><use href="#stack-icon-0" x="504" y="7" width="58" height="58" fill="#78b6a5"/><use href="#stack-icon-0" x="600" y="7" width="58" height="58" fill="#d9a86c"/><use href="#stack-icon-0" x="696" y="7" width="58" height="58" fill="#f4f1e8"/><use href="#stack-icon-0" x="792" y="7" width="58" height="58" fill="#78b6a5"/><use href="#stack-icon-0" x="888" y="7" width="58" height="58" fill="#d9a86c"/><use href="#stack-icon-0" x="984" y="7" width="58" height="58" fill="#f4f1e8"/><use href="#stack-icon-0" x="1080" y="7" width="58" height="58" fill="#78b6a5"/><use href="#stack-icon-0" x="1176" y="7" width="58" height="58" fill="#d9a86c"/><use href="#stack-icon-0" x="1272" y="7" width="58" height="58" fill="#f4f1e8"/><use href="#stack-icon-0" x="-120" y="103" width="58" height="58" fill="#78b6a5"/><use href="#stack-icon-0" x="-24" y="103" width="58" height="58" fill="#d9a86c"/><use href="#stack-icon-0" x="72" y="103" width="58" height="58" fill="#f4f1e8"/><use href="#stack-icon-0" x="168" y="103" width="58" height="58" fill="#78b6a5"/><use href="#stack-icon-0" x="264" y="103" width="58" height="58" fill="#d9a86c"/><use href="#stack-icon-0" x="360" y="103" width="58" height="58" fill="#f4f1e8"/><use href="#stack-icon-0" x="456" y="103" width="58" height="58" fill="#78b6a5"/><use href="#stack-icon-0" x="552" y="103" width="58" height="58" fill="#d9a86c"/><use href="#stack-icon-0" x="648" y="103" width="58" height="58" fill="#f4f1e8"/><use href="#stack-icon-0" x="744" y="103" width="58" height="58" fill="#78b6a5"/><use href="#stack-icon-0" x="840" y="103" width="58" height="58" fill="#d9a86c"/><use href="#stack-icon-0" x="936" y="103" width="58" height="58" fill="#f4f1e8"/><use href="#stack-icon-0" x="1032" y="103" width="58" height="58" fill="#78b6a5"/><use href="#stack-icon-0" x="1128" y="103" width="58" height="58" fill="#d9a86c"/><use href="#stack-icon-0" x="1224" y="103" width="58" height="58" fill="#f4f1e8"/><use href="#stack-icon-0" x="1320" y="103" width="58" height="58" fill="#78b6a5"/><use href="#stack-icon-0" x="-72" y="199" width="58" height="58" fill="#d9a86c"/><use href="#stack-icon-0" x="24" y="199" width="58" height="58" fill="#f4f1e8"/><use href="#stack-icon-0" x="120" y="199" width="58" height="58" fill="#78b6a5"/><use href="#stack-icon-0" x="216" y="199" width="58" height="58" fill="#d9a86c"/><use href="#stack-icon-0" x="312" y="199" width="58" height="58" fill="#f4f1e8"/><use href="#stack-icon-0" x="408" y="199" width="58" height="58" fill="#78b6a5"/><use href="#stack-icon-0" x="504" y="199" width="58" height="58" fill="#d9a86c"/><use href="#stack-icon-0" x="600" y="199" width="58" height="58" fill="#f4f1e8"/><use href="#stack-icon-0" x="696" y="199" width="58" height="58" fill="#78b6a5"/><use href="#stack-icon-0" x="792" y="199" width="58" height="58" fill="#d9a86c"/><use href="#stack-icon-0" x="888" y="199" width="58" height="58" fill="#f4f1e8"/><use href="#stack-icon-0" x="984" y="199" width="58" height="58" fill="#78b6a5"/><use href="#stack-icon-0" x="1080" y="199" width="58" height="58" fill="#d9a86c"/><use href="#stack-icon-0" x="1176" y="199" width="58" height="58" fill="#f4f1e8"/><use href="#stack-icon-0" x="1272" y="199" width="58" height="58" fill="#78b6a5"/><use href="#stack-icon-0" x="1368" y="199" width="58" height="58" fill="#d9a86c"/><use href="#stack-icon-0" x="-24" y="295" width="58" height="58" fill="#f4f1e8"/><use href="#stack-icon-0" x="72" y="295" width="58" height="58" fill="#78b6a5"/><use href="#stack-icon-0" x="168" y="295" width="58" height="58" fill="#d9a86c"/><use href="#stack-icon-0" x="264" y="295" width="58" height="58" fill="#f4f1e8"/><use href="#stack-icon-0" x="360" y="295" width="58" height="58" fill="#78b6a5"/><use href="#stack-icon-0" x="456" y="295" width="58" height="58" fill="#d9a86c"/><use href="#stack-icon-0" x="552" y="295" width="58" height="58" fill="#f4f1e8"/><use href="#stack-icon-0" x="648" y="295" width="58" height="58" fill="#78b6a5"/><use href="#stack-icon-0" x="744" y="295" width="58" height="58" fill="#d9a86c"/><use href="#stack-icon-0" x="840" y="295" width="58" height="58" fill="#f4f1e8"/><use href="#stack-icon-0" x="936" y="295" width="58" height="58" fill="#78b6a5"/><use href="#stack-icon-0" x="1032" y="295" width="58" height="58" fill="#d9a86c"/><use href="#stack-icon-0" x="1128" y="295" width="58" height="58" fill="#f4f1e8"/><use href="#stack-icon-0" x="1224" y="295" width="58" height="58" fill="#78b6a5"/><use href="#stack-icon-0" x="1320" y="295" width="58" height="58" fill="#d9a86c"/><use href="#stack-icon-0" x="1416" y="295" width="58" height="58" fill="#f4f1e8"/>
  </g>
  <rect width="100%" height="100%" fill="url(#title-scrim)"/>
  <text x="600" y="169.44" text-anchor="middle" dominant-baseline="middle"
        font-family="Arial, Helvetica, sans-serif" font-size="76" font-weight="700"
        letter-spacing="1.2" fill="#f4f1e8" stroke="#17202b"
        stroke-width="1.5" paint-order="stroke">Agent Skills</text>
  <text x="600" y="227.12" text-anchor="middle" dominant-baseline="middle" font-family="Arial, Helvetica, sans-serif" font-size="22" font-weight="400" letter-spacing="0.25" fill="#f4f1e8" stroke="#17202b" stroke-width="0.8" paint-order="stroke">Reusable skills for repository documentation</text>
</svg>
